<svg viewBox="0 0 8 12" fill="currentColor" xmlns="http://www.w3.org/2000/svg"><path d="M0.393244 5.90568C0.477403 6.06168 0.637433 6.15893 0.811488 6.15893H3.52179V11.5105C3.52179 11.7807 3.73601 12 3.99996 12C4.26392 12 4.47814 11.7807 4.47814 11.5105V6.15893H7.18844C7.36313 6.15893 7.52316 6.06168 7.60668 5.90568C7.69148 5.74969 7.68574 5.5591 7.59329 5.40832L4.40482 0.228447C4.31683 0.0861572 4.16445 0 3.99996 0C3.83547 0 3.68309 0.0861572 3.59511 0.228447L0.406633 5.40832C0.358178 5.48795 0.333313 5.57868 0.333313 5.6694C0.333313 5.75034 0.353715 5.83193 0.393244 5.90568Z" fill="currentColor"/></svg>